<?xml version="1.0" encoding="UTF-8"?>
<svg width="1286px" height="823px" viewBox="0 0 1286 823" version="1.1" xmlns="http://www.w3.org/2000/svg" xmlns:xlink="http://www.w3.org/1999/xlink">
    <!-- Generator: Sketch 54.1 (76490) - https://sketchapp.com -->
    <title>Artboard</title>
    <desc>Created with Sketch.</desc>
    <g id="Artboard" stroke="none" stroke-width="1" fill="none" fill-rule="evenodd">
        <g id="safari-pinned-tab" transform="translate(32.000000, 20.000000)" fill="#000000" fill-rule="nonzero">
            <g id="Group" transform="translate(612.100000, 369.000000) scale(-1, 1) rotate(-180.000000) translate(-612.100000, -369.000000) translate(0.100000, 0.000000)">
                <path d="M9.4,736.6 C5.9,735.1 1.1,729.9 0.4,726.7 C0.1,725.5 -4.23272528e-15,563.8 0.1,367.3 L0.4,10.1 L2.5,7.3 C3.7,5.8 6.1,3.6 8,2.5 C11.3,0.5 13.2,0.5 117.9,0.5 L224.4,0.5 L224.4,7 L224.4,13.5 L119.1,13.8 L13.9,14 L14.1,369.3 L14.4,724.5 L611.9,724.5 L1209.4,724.5 L1209.7,369.3 L1209.9,14 L1099.7,13.8 L989.4,13.5 L989.1,6.7 L988.8,0 L1100.6,0.2 C1210.4,0.5 1212.5,0.5 1215.8,2.5 C1217.7,3.6 1220.1,5.8 1221.3,7.3 L1223.4,10.1 L1223.7,368.4 L1223.9,726.7 L1221.7,730 C1220.4,731.8 1218.1,734.3 1216.6,735.4 L1213.8,737.5 L613.1,737.7 C115.2,737.9 11.9,737.7 9.4,736.6 Z" id="Path"></path>
                <path d="M558.9,618.9 C498.3,616.7 446.6,611.8 410.9,604.9 C365.3,596.1 335.7,583.3 323.6,567.3 L319.4,561.6 L319.6,544.6 C320.4,481 330.3,402.1 344.4,348.5 C366.6,263.7 402.5,206 454.4,171.7 C471.9,160.1 500,148.1 522.4,142.6 C533.4,139.9 549.2,137.2 567.3,134.9 C583.9,132.9 586.4,132.8 602.7,133.9 C636.7,136.2 659.5,140.6 687.6,150.4 C714.8,159.9 742.9,175.1 763.2,191.3 C769.5,196.4 770.5,196.9 779.2,198.4 C842.7,209.9 924.3,250.7 980.3,299.1 C985.9,303.8 996.3,313.8 1003.4,321.1 C1031.7,350.1 1047.3,375.3 1056.1,406.5 C1058.1,413.4 1058.4,416.9 1058.4,432.5 C1058.4,448 1058.1,451.6 1056.2,458.5 C1049.6,482.7 1035.6,504.5 1017.3,519 C1004.9,528.9 995.2,532.5 978.4,533.6 C958.6,534.9 935.9,530.6 903.1,519.4 C894.1,516.3 886.5,514.1 886.2,514.4 C885.8,514.7 885.2,523 884.8,532.8 C883.3,567 883.2,567.6 874.8,576.1 C854.3,596.9 793.9,610.9 700.9,616.5 C647.1,619.7 603,620.5 558.9,618.9 Z M680.9,581.5 C763.2,576.5 818.2,564.9 823.8,551.1 C824.9,548.5 824.9,547.7 823.5,545.6 C820.4,540.7 808.4,535.2 791.8,531 C781.1,528.2 759.1,524.2 750.8,523.4 L744.2,522.7 L743.4,529.6 C742.5,537.9 740.9,541.5 736.9,543.5 C733,545.5 731.8,545.5 711.8,542.1 C688.2,538.1 675.5,537.1 632.7,536.4 C609.4,535.9 595.1,535.3 593.8,534.6 C589.8,532.6 587.9,528.8 587.2,521.7 L586.6,515 L572.5,515 C541.9,515 488.5,518.7 456.4,523.1 C408.7,529.6 380.9,539.1 380.9,548.9 C380.9,565.4 451.5,579.2 554.9,583 C585,584.1 650.6,583.3 680.9,581.5 Z M717.9,417.5 C717.9,362.8 717.7,318 717.5,318 C717.2,318 709.1,329.8 699.3,344.3 C689.6,358.7 679.8,372.9 677.6,375.8 C670.1,386 662.4,386.3 655.2,376.7 C653,373.9 643.2,359.6 633.3,345 L615.4,318.5 L614.8,325.5 C614.4,329.4 613.8,372.7 613.4,421.8 L612.7,511 L628.5,511 C650.2,511 679.7,512.7 695.9,514.9 C703.3,515.9 711.3,516.8 713.7,516.9 L717.9,517 L717.9,417.5 Z M968,472 C994.2,467 1006.6,438.8 997.7,404.5 C984.8,355 935.6,311.2 870.4,291.1 C859.9,287.9 837.8,282.7 837.2,283.4 C837,283.6 839.5,289.8 842.7,297.1 C859.6,335.3 870.4,373.2 877.4,418.5 C879.1,429.2 880.7,436.4 881.8,438 C884.2,441.5 904.4,454.9 916.4,460.9 C935.9,470.8 954,474.6 968,472 Z" id="Shape"></path>
            </g>
        </g>
        <text id="RUSLAND-1" font-family="Rubik-Regular, Rubik" font-size="125" font-weight="normal" fill="#000000">
            <tspan x="322" y="792">RUSLAND 1</tspan>
        </text>
    </g>
</svg>